<?xml version="1.0" encoding="UTF-8" standalone="no"?>
<!DOCTYPE svg PUBLIC "-//W3C//DTD SVG 20010904//EN"
              "http://www.w3.org/TR/2001/REC-SVG-20010904/DTD/svg10.dtd">

<svg xmlns="http://www.w3.org/2000/svg"
     width="13.2667in" height="18.7567in"
     viewBox="0 0 3980 5627">
  <path id="path #4"
        fill="none" stroke="black" stroke-width="1"
        d="M 2275.50,2745.00
           C 2274.00,2745.00 2370.00,2712.00 2370.00,2712.00
             2370.00,2712.00 2437.50,2665.50 2437.50,2665.50
             2437.50,2665.50 2479.50,2605.50 2479.50,2605.50
             2479.50,2605.50 2496.00,2559.00 2496.00,2559.00
             2496.00,2559.00 2566.50,2571.00 2566.50,2571.00
             2566.50,2571.00 2661.00,2599.50 2661.00,2599.50
             2661.00,2599.50 2722.50,2616.00 2724.00,2616.00
             2725.50,2616.00 2785.50,2622.00 2787.00,2622.00
             2788.50,2622.00 2901.00,2601.00 2901.00,2601.00
             2901.00,2601.00 2964.00,2544.00 2964.00,2544.00
             2964.00,2544.00 3013.50,2478.00 3013.50,2478.00
             3013.50,2478.00 3094.50,2442.00 3094.50,2442.00
             3094.50,2442.00 3159.00,2380.50 3159.00,2380.50
             3159.00,2380.50 3169.50,2287.50 3169.50,2287.50
             3169.50,2287.50 3153.00,2229.00 3153.00,2229.00
             3153.00,2229.00 3036.00,2142.00 3036.00,2142.00
             3036.00,2142.00 2895.00,2089.50 2895.00,2089.50
             2895.00,2089.50 2736.00,2074.50 2736.00,2074.50
             2736.00,2074.50 2556.00,2049.00 2556.00,2049.00
             2556.00,2049.00 2412.00,2026.50 2412.00,2026.50
             2412.00,2026.50 2326.50,2001.00 2326.50,2001.00
             2326.50,2001.00 2305.50,1960.50 2305.50,1960.50
             2305.50,1960.50 2344.50,1912.50 2344.50,1912.50
             2344.50,1912.50 2437.50,1872.00 2437.50,1872.00
             2437.50,1872.00 2478.00,1806.00 2478.00,1806.00
             2478.00,1806.00 2479.50,1708.50 2479.50,1708.50
             2479.50,1708.50 2410.50,1659.00 2410.50,1659.00
             2410.50,1659.00 2337.00,1650.00 2337.00,1650.00
             2337.00,1650.00 2284.50,1620.00 2284.50,1620.00
             2284.50,1620.00 2278.50,1588.50 2278.50,1588.50M 2143.50,2886.00
           C 2143.50,2886.00 2113.50,2923.50 2112.00,2923.50
             2110.50,2923.50 2034.00,2956.50 2034.00,2956.50
             2034.00,2956.50 1929.00,2994.00 1929.00,2994.00
             1929.00,2994.00 1834.50,3039.00 1834.50,3039.00
             1834.50,3039.00 1774.50,3108.00 1774.50,3108.00
             1774.50,3108.00 1758.00,3217.50 1758.00,3219.00
             1758.00,3220.50 1777.50,3313.50 1777.50,3313.50
             1777.50,3313.50 1801.50,3435.00 1801.50,3435.00
             1801.50,3435.00 1858.50,3511.50 1858.50,3511.50
             1858.50,3511.50 2016.00,3555.00 2016.00,3555.00M 2493.00,3555.00
           C 2493.00,3555.00 2467.50,3475.50 2467.50,3475.50
             2467.50,3475.50 2431.50,3429.00 2431.50,3429.00
             2431.50,3429.00 2373.00,3382.50 2373.00,3382.50
             2373.00,3382.50 2320.50,3358.50 2320.50,3358.50
             2320.50,3358.50 2340.00,3327.00 2340.00,3327.00
             2340.00,3327.00 2371.50,3262.50 2371.50,3262.50
             2371.50,3262.50 2403.00,3204.00 2403.00,3204.00
             2403.00,3204.00 2401.50,3166.50 2401.50,3166.50
             2401.50,3166.50 2373.00,3120.00 2373.00,3120.00
             2373.00,3120.00 2334.00,3078.00 2334.00,3078.00
             2334.00,3078.00 2286.00,3025.50 2286.00,3025.50
             2286.00,3025.50 2269.50,2991.00 2269.50,2991.00
             2269.50,2991.00 2353.50,2922.00 2353.50,2922.00
             2353.50,2922.00 2398.50,2836.50 2398.50,2836.50
             2398.50,2836.50 2485.50,2760.00 2485.50,2760.00
             2485.50,2760.00 2572.50,2722.50 2572.50,2722.50
             2572.50,2722.50 2704.50,2724.00 2704.50,2724.00
             2704.50,2724.00 2796.00,2749.50 2796.00,2749.50
             2796.00,2749.50 2853.00,2824.50 2853.00,2824.50
             2853.00,2824.50 2883.00,2917.50 2883.00,2917.50
             2883.00,2917.50 2886.00,2977.50 2886.00,2977.50
             2886.00,2977.50 2872.50,3034.50 2872.50,3034.50
             2872.50,3034.50 2841.00,3132.00 2841.00,3132.00
             2841.00,3132.00 2790.00,3205.50 2790.00,3205.50
             2790.00,3205.50 2730.00,3252.00 2730.00,3252.00
             2730.00,3252.00 2670.00,3256.50 2670.00,3256.50
             2670.00,3256.50 2598.00,3199.50 2598.00,3199.50
             2598.00,3199.50 2566.50,3124.50 2566.50,3124.50
             2566.50,3124.50 2548.50,3042.00 2548.50,3042.00
             2548.50,3042.00 2565.00,2967.00 2565.00,2967.00
             2565.00,2967.00 2608.50,2934.00 2608.50,2934.00
             2608.50,2934.00 2659.50,2946.00 2659.50,2946.00
             2659.50,2946.00 2677.50,3024.00 2677.50,3024.00
             2677.50,3024.00 2652.00,3076.50 2652.00,3076.50
             2652.00,3076.50 2698.50,3096.00 2698.50,3096.00
             2698.50,3096.00 2740.50,3060.00 2740.50,3060.00
             2740.50,3060.00 2745.00,2991.00 2745.00,2991.00
             2745.00,2991.00 2719.50,2914.50 2719.50,2914.50
             2719.50,2914.50 2671.50,2871.00 2671.50,2871.00
             2671.50,2871.00 2599.50,2869.50 2599.50,2869.50
             2599.50,2869.50 2512.50,2884.50 2512.50,2884.50
             2512.50,2884.50 2467.50,3007.50 2467.50,3007.50
             2467.50,3007.50 2479.50,3129.00 2479.50,3129.00
             2479.50,3129.00 2526.00,3249.00 2526.00,3249.00
             2526.00,3249.00 2620.50,3343.50 2620.50,3343.50
             2620.50,3343.50 2719.50,3364.50 2719.50,3364.50
             2719.50,3364.50 2817.00,3342.00 2817.00,3342.00
             2817.00,3342.00 2896.50,3300.00 2896.50,3300.00
             2896.50,3300.00 2962.50,3202.50 2962.50,3202.50
             2962.50,3202.50 2991.00,3112.50 2991.00,3112.50
             2991.00,3112.50 3001.50,2982.00 3001.50,2982.00
             3001.50,2982.00 2982.00,2865.00 2982.00,2865.00
             2982.00,2865.00 2961.00,2766.00 2961.00,2766.00
             2961.00,2766.00 2917.50,2719.50 2917.50,2719.50
             2917.50,2719.50 2832.00,2650.50 2832.00,2650.50
             2832.00,2650.50 2727.00,2616.00 2727.00,2616.00
             2727.00,2616.00 2611.50,2620.50 2611.50,2620.50
             2611.50,2620.50 2470.50,2650.50 2470.50,2650.50
             2470.50,2650.50 2392.50,2697.00 2392.50,2697.00
             2392.50,2697.00 2316.00,2773.50 2316.00,2773.50
             2316.00,2773.50 2250.00,2898.00 2250.00,2898.00
             2250.00,2898.00 2211.00,2923.50 2211.00,2923.50
             2211.00,2923.50 2256.00,2838.00 2256.00,2838.00
             2256.00,2838.00 2271.00,2755.50 2271.00,2755.50M 2143.50,2893.50
           C 2143.50,2893.50 2188.50,2812.50 2188.50,2812.50
             2188.50,2812.50 2200.50,2745.00 2200.50,2745.00
             2200.50,2745.00 2116.50,2724.00 2116.50,2724.00
             2116.50,2724.00 2047.50,2698.50 2047.50,2698.50
             2047.50,2698.50 2005.50,2664.00 2005.50,2664.00
             2005.50,2664.00 1956.00,2593.50 1956.00,2593.50
             1956.00,2593.50 1941.00,2535.00 1941.00,2535.00
             1941.00,2535.00 1936.50,2491.50 1936.50,2491.50
             1936.50,2491.50 1825.50,2535.00 1825.50,2535.00
             1825.50,2535.00 1773.00,2586.00 1773.00,2586.00
             1773.00,2586.00 1744.50,2686.50 1744.50,2686.50
             1744.50,2686.50 1801.50,2754.00 1801.50,2754.00
             1801.50,2754.00 1882.50,2818.50 1882.50,2818.50
             1882.50,2818.50 1897.50,2917.50 1897.50,2917.50
             1897.50,2917.50 1849.50,2985.00 1849.50,2985.00
             1849.50,2985.00 1740.00,3025.50 1740.00,3025.50
             1740.00,3025.50 1645.50,3007.50 1645.50,3007.50
             1645.50,3007.50 1581.00,2946.00 1581.00,2946.00
             1581.00,2946.00 1524.00,2866.50 1524.00,2866.50
             1524.00,2866.50 1491.00,2754.00 1491.00,2754.00
             1491.00,2754.00 1506.00,2623.50 1506.00,2623.50
             1506.00,2623.50 1522.50,2511.00 1522.50,2511.00
             1522.50,2511.00 1627.50,2427.00 1627.50,2427.00
             1627.50,2427.00 1767.00,2371.50 1767.00,2371.50
             1767.00,2371.50 1882.50,2334.00 1882.50,2334.00
             1882.50,2334.00 1962.00,2316.00 1962.00,2316.00
             1962.00,2316.00 1996.50,2275.50 1996.50,2275.50
             1996.50,2275.50 2065.50,2217.00 2065.50,2217.00
             2065.50,2217.00 2083.50,2187.00 2083.50,2185.50
             2083.50,2184.00 2098.50,2050.50 2098.50,2050.50
             2098.50,2050.50 2080.50,1951.50 2080.50,1951.50
             2080.50,1951.50 2031.00,1893.00 2031.00,1893.00
             2031.00,1893.00 1957.50,1875.00 1957.50,1875.00
             1957.50,1875.00 1818.00,1908.00 1818.00,1908.00
             1818.00,1908.00 1722.00,1956.00 1722.00,1956.00
             1722.00,1956.00 1663.50,2053.50 1663.50,2053.50
             1663.50,2053.50 1671.00,2152.50 1671.00,2152.50
             1671.00,2152.50 1732.50,2209.50 1732.50,2209.50
             1732.50,2209.50 1795.50,2233.50 1795.50,2233.50
             1795.50,2233.50 1879.50,2202.00 1879.50,2202.00
             1879.50,2202.00 1911.00,2154.00 1911.00,2154.00
             1911.00,2154.00 1909.50,2073.00 1909.50,2073.00
             1909.50,2073.00 1870.50,2031.00 1870.50,2031.00
             1870.50,2031.00 1815.00,2052.00 1815.00,2052.00
             1815.00,2052.00 1824.00,2107.50 1824.00,2107.50
             1824.00,2107.50 1753.50,2118.00 1753.50,2118.00
             1753.50,2118.00 1728.00,2037.00 1728.00,2037.00
             1728.00,2037.00 1780.50,1989.00 1780.50,1989.00
             1780.50,1989.00 1864.50,1969.50 1864.50,1969.50
             1864.50,1969.50 1933.50,1986.00 1933.50,1986.00
             1933.50,1986.00 1989.00,2044.50 1989.00,2044.50
             1989.00,2044.50 1993.50,2151.00 1993.50,2151.00
             1993.50,2151.00 1917.00,2269.50 1917.00,2269.50
             1917.00,2269.50 1792.50,2305.50 1792.50,2305.50
             1792.50,2305.50 1656.00,2287.50 1656.00,2287.50
             1656.00,2287.50 1573.50,2190.00 1573.50,2190.00
             1573.50,2190.00 1545.00,2052.00 1545.00,2052.00
             1545.00,2052.00 1609.50,1929.00 1609.50,1929.00
             1609.50,1929.00 1716.00,1867.50 1716.00,1867.50
             1716.00,1867.50 1866.00,1822.50 1866.00,1822.50
             1866.00,1822.50 1957.50,1816.50 1957.50,1816.50
             1957.50,1816.50 2050.50,1830.00 2050.50,1830.00
             2050.50,1830.00 2116.50,1894.50 2116.50,1894.50
             2116.50,1894.50 2152.50,2008.50 2152.50,2008.50
             2152.50,2008.50 2155.50,2112.00 2155.50,2112.00
             2155.50,2112.00 2151.00,2182.50 2151.00,2182.50
             2151.00,2182.50 2236.50,2170.50 2236.50,2170.50
             2236.50,2170.50 2359.50,2197.50 2359.50,2197.50
             2359.50,2197.50 2434.50,2275.50 2434.50,2275.50
             2434.50,2275.50 2455.50,2311.50 2455.50,2311.50
             2455.50,2311.50 2497.50,2394.00 2497.50,2394.00
             2497.50,2394.00 2502.00,2431.50 2502.00,2431.50
             2502.00,2431.50 2559.00,2490.00 2559.00,2490.00
             2559.00,2490.00 2661.00,2527.50 2661.00,2527.50
             2661.00,2527.50 2752.50,2529.00 2752.50,2529.00
             2752.50,2529.00 2842.50,2508.00 2842.50,2508.00
             2842.50,2508.00 2875.50,2470.50 2875.50,2470.50
             2875.50,2470.50 2943.00,2412.00 2943.00,2412.00
             2943.00,2412.00 3030.00,2376.00 3030.00,2376.00
             3030.00,2376.00 3085.50,2305.50 3085.50,2305.50
             3085.50,2305.50 3063.00,2229.00 3061.50,2229.00
             3060.00,2229.00 2964.00,2193.00 2964.00,2193.00
             2964.00,2193.00 2887.50,2163.00 2887.50,2163.00
             2887.50,2163.00 2791.50,2142.00 2791.50,2142.00
             2791.50,2142.00 2698.50,2136.00 2698.50,2136.00
             2698.50,2136.00 2539.50,2118.00 2539.50,2118.00
             2539.50,2118.00 2385.00,2097.00 2385.00,2097.00
             2385.00,2097.00 2268.00,2077.50 2268.00,2076.00
             2268.00,2074.50 2208.00,1983.00 2208.00,1983.00
             2208.00,1983.00 2211.00,1912.50 2211.00,1912.50
             2211.00,1912.50 2271.00,1882.50 2271.00,1882.50
             2271.00,1882.50 2358.00,1852.50 2358.00,1852.50
             2358.00,1852.50 2400.00,1783.50 2400.00,1783.50
             2400.00,1783.50 2412.00,1726.50 2412.00,1726.50
             2412.00,1726.50 2379.00,1696.50 2379.00,1696.50
             2379.00,1696.50 2278.50,1683.00 2278.50,1683.00
             2278.50,1683.00 2197.50,1648.50 2197.50,1648.50
             2197.50,1648.50 2179.50,1603.50 2179.50,1603.50
             2179.50,1603.50 2187.00,1582.50 2187.00,1582.50M 2013.00,3543.00
           C 2013.00,3532.50 2041.50,3318.00 2242.50,3331.50
             2310.00,3261.00 2334.00,3202.50 2334.00,3202.50
             2334.00,3202.50 2322.00,3157.50 2320.50,3157.50
             2319.00,3157.50 2131.50,3015.00 2131.50,3015.00
             2131.50,3015.00 1942.50,3088.50 1942.50,3088.50
             1942.50,3088.50 1872.00,3189.00 1872.00,3189.00
             1872.00,3189.00 1906.50,3304.50 1906.50,3304.50
             1906.50,3304.50 1974.00,3357.00 1974.00,3357.00
             1974.00,3357.00 2031.00,3334.50 2031.00,3334.50
             2031.00,3334.50 2074.50,3285.00 2074.50,3285.00
             2074.50,3285.00 2080.50,3229.50 2080.50,3229.50
             2080.50,3229.50 2041.50,3207.00 2041.50,3207.00
             2041.50,3207.00 1980.00,3196.50 1980.00,3196.50" />
</svg>
