<?xml version="1.0" encoding="UTF-8" standalone="no"?>
<!DOCTYPE svg PUBLIC "-//W3C//DTD SVG 20010904//EN"
              "http://www.w3.org/TR/2001/REC-SVG-20010904/DTD/svg10.dtd">

<svg xmlns="http://www.w3.org/2000/svg"
     width="11.6933in" height="16.5333in"
     viewBox="0 0 3508 4960">
  <path id="path #2"
        fill="none" stroke="black" stroke-width="1"
        d="M 1041.00,1071.00
           C 1041.00,1071.00 516.00,1005.00 474.00,1476.00M 2007.00,3753.00
           C 2007.00,3753.00 1521.00,3756.00 1521.00,3756.00M 2682.00,3771.00
           C 2682.00,3771.00 2577.00,3759.00 2577.00,3759.00M 2682.00,1089.00
           C 2682.00,1089.00 3144.00,1089.00 3147.00,1494.00
             3150.00,1899.00 3132.00,3306.00 3132.00,3306.00
             3132.00,3306.00 3138.00,3771.00 2673.00,3762.00M 3183.00,1200.00M 774.00,2292.00
           C 774.00,2292.00 771.00,2175.00 771.00,2175.00M 456.00,2475.00
           C 456.00,2475.00 678.00,2472.00 678.00,2472.00
             678.00,2472.00 684.00,2649.00 684.00,2649.00
             684.00,2649.00 945.00,2646.00 945.00,2646.00
             945.00,2646.00 1023.00,2358.00 1023.00,2358.00
             1023.00,2358.00 1287.00,2337.00 1287.00,2337.00M 1428.00,2154.00
           C 1428.00,2154.00 672.00,2175.00 672.00,2175.00M 783.00,2289.00
           C 783.00,2289.00 903.00,2289.00 885.00,2292.00
             867.00,2295.00 861.00,2457.00 861.00,2457.00M 729.00,1980.00
           C 729.00,1980.00 471.00,1989.00 471.00,1989.00M 480.00,1479.00
           C 480.00,1479.00 840.00,1470.00 840.00,1470.00
             840.00,1470.00 858.00,1611.00 858.00,1611.00
             858.00,1611.00 1008.00,1614.00 1008.00,1614.00
             1008.00,1614.00 1014.00,1995.00 1014.00,1995.00
             1014.00,1995.00 870.00,2010.00 870.00,2010.00
             870.00,2010.00 867.00,1755.00 867.00,1755.00
             867.00,1755.00 606.00,1758.00 606.00,1758.00M 1725.00,1494.00
           C 1725.00,1494.00 1953.00,1485.00 1953.00,1485.00
             1953.00,1485.00 1959.00,1596.00 1959.00,1596.00
             1959.00,1596.00 2163.00,1599.00 2163.00,1599.00M 2877.00,1980.00
           C 2877.00,1980.00 2883.00,1671.00 2883.00,1671.00
             2883.00,1671.00 2553.00,1683.00 2553.00,1683.00
             2553.00,1683.00 2556.00,1248.00 2556.00,1248.00
             2556.00,1248.00 2673.00,1245.00 2673.00,1245.00
             2673.00,1245.00 2670.00,1101.00 2670.00,1101.00
             2670.00,1101.00 1050.00,1068.00 1050.00,1068.00
             1050.00,1068.00 1029.00,1455.00 1029.00,1455.00
             1029.00,1455.00 1146.00,1455.00 1146.00,1455.00
             1146.00,1455.00 1149.00,2019.00 1149.00,2019.00
             1149.00,2019.00 1305.00,2022.00 1305.00,2022.00
             1305.00,2022.00 1308.00,1872.00 1308.00,1872.00
             1308.00,1872.00 1857.00,1881.00 1857.00,1881.00
             1857.00,1881.00 1863.00,1743.00 1863.00,1743.00
             1863.00,1743.00 2400.00,1704.00 2400.00,1704.00
             2400.00,1704.00 2391.00,1470.00 2391.00,1470.00
             2391.00,1470.00 2115.00,1461.00 2115.00,1461.00
             2115.00,1461.00 2097.00,1242.00 2097.00,1242.00
             2097.00,1242.00 1290.00,1269.00 1290.00,1269.00
             1290.00,1269.00 1287.00,1725.00 1287.00,1725.00
             1287.00,1725.00 1731.00,1707.00 1731.00,1707.00
             1731.00,1707.00 1731.00,1509.00 1731.00,1506.00
             1731.00,1503.00 1443.00,1494.00 1443.00,1494.00M 2823.00,1107.00M 1626.00,2166.00
           C 1626.00,2166.00 1623.00,2400.00 1623.00,2400.00
             1623.00,2400.00 1806.00,2391.00 1806.00,2391.00
             1806.00,2391.00 1809.00,2004.00 1809.00,2004.00
             1809.00,2004.00 1437.00,2001.00 1437.00,2001.00
             1437.00,2001.00 1440.00,2511.00 1440.00,2511.00M 2391.00,1881.00
           C 2391.00,1881.00 2007.00,1887.00 2007.00,1887.00
             2007.00,1887.00 1995.00,2361.00 1995.00,2361.00
             1995.00,2361.00 2205.00,2364.00 2205.00,2364.00
             2205.00,2364.00 2202.00,2049.00 2202.00,2049.00M 453.00,2781.00
           C 453.00,2781.00 1065.00,2790.00 1065.00,2790.00
             1065.00,2790.00 1086.00,2517.00 1086.00,2517.00
             1086.00,2517.00 2388.00,2520.00 2388.00,2520.00
             2388.00,2520.00 2400.00,1887.00 2400.00,1887.00
             2400.00,1887.00 2727.00,1860.00 2727.00,1860.00M 1635.00,2775.00
           C 1635.00,2775.00 1458.00,2775.00 1458.00,2775.00
             1458.00,2775.00 1449.00,3342.00 1449.00,3342.00
             1449.00,3342.00 2067.00,3342.00 2067.00,3342.00
             2067.00,3342.00 2094.00,3120.00 2094.00,3120.00M 2199.00,3510.00
           C 2199.00,3510.00 2223.00,3132.00 2223.00,3132.00
             2223.00,3132.00 2091.00,3123.00 2094.00,3123.00
             2097.00,3123.00 2100.00,2889.00 2100.00,2889.00
             2054.91,2857.76 2664.00,2853.00 2664.00,2853.00M 2355.00,2988.00
           C 2355.00,2988.00 2367.00,3492.00 2367.00,3492.00M 2845.00,3437.00
           C 2845.00,3437.00 2858.00,2993.00 2858.00,2993.00
             2858.00,2993.00 2195.00,2999.00 2195.00,2999.00M 2926.00,2133.00
           C 2926.00,2133.00 2931.00,2576.00 2931.00,2576.00
             2931.00,2576.00 2656.00,2579.00 2656.00,2579.00
             2656.00,2579.00 2662.00,2850.00 2662.00,2850.00
             2662.00,2850.00 2975.00,2857.00 2975.00,2857.00M 2900.00,2140.00M 2708.00,1989.00
           C 2708.00,1989.00 2721.00,2477.00 2721.00,2477.00M 1278.00,3490.00
           C 1278.00,3490.00 1289.00,3113.00 1289.00,3113.00
             1289.00,3113.00 656.00,3127.00 656.00,3127.00
             656.00,3127.00 639.00,2925.00 639.00,2925.00
             639.00,2925.00 1214.00,2908.00 1214.00,2908.00
             1214.00,2908.00 1215.00,2628.00 1215.00,2628.00
             1215.00,2628.00 1817.00,2629.00 1817.00,2629.00
             1817.00,2629.00 1816.00,2911.00 1816.00,2911.00
             1816.00,2911.00 1596.00,2915.00 1596.00,2915.00
             1596.00,2915.00 1570.00,3191.00 1570.00,3191.00
             1570.00,3191.00 1856.00,3199.00 1856.00,3199.00
             1856.00,3199.00 1867.00,3015.00 1867.00,3015.00
             1867.00,3015.00 1949.00,3009.00 1949.00,3009.00
             1949.00,3009.00 1963.00,2657.00 1963.00,2657.00
             1963.00,2657.00 2512.00,2661.00 2512.00,2661.00
             2512.00,2661.00 2505.00,1994.00 2505.00,1994.00
             2505.00,1994.00 3143.00,1972.00 3143.00,1972.00M 1158.00,3494.00
           C 1158.00,3491.00 1159.00,3211.00 1159.00,3211.00
             1159.00,3211.00 449.00,3232.00 449.00,3232.00M 2370.00,3492.00
           C 2370.00,3492.00 2529.00,3612.00 2574.00,3744.00M 2004.00,3744.00
           C 2004.00,3744.00 2058.00,3576.00 2205.00,3495.00M 1290.00,3492.00
           C 1290.00,3492.00 1476.00,3573.00 1512.00,3741.00M 924.00,3750.00
           C 924.00,3750.00 1014.00,3546.00 1158.00,3501.00M 464.00,1516.00
           C 464.00,1516.00 448.00,3248.00 448.00,3248.00
             448.00,3248.00 400.00,3748.00 924.00,3740.00M 1896.00,2463.00" />
</svg>
